<svg id="comic" xmlns="http://www.w3.org/2000/svg" width="160.887" height="150.16" viewBox="0 0 160.887 150.16">
  <path id="Path_90" data-name="Path 90" d="M13.363,8h144.8a5.363,5.363,0,0,1,5.363,5.363V120.621a5.363,5.363,0,0,1-5.363,5.363H13.363A5.363,5.363,0,0,1,8,120.621V13.363A5.363,5.363,0,0,1,13.363,8Zm0,0" transform="translate(-5.319 -5.319)" fill="#7d8d9c"/>
  <g id="Group_5" data-name="Group 5" transform="translate(10.726 10.613)">
    <path id="Path_91" data-name="Path 91" d="M104,40H216.621v96.532H104Zm0,0" transform="translate(-79.867 -37.206)" fill="#f4f4e6"/>
    <path id="Path_92" data-name="Path 92" d="M34.681,314.613A2.682,2.682,0,0,1,32,311.932v-5.25a2.681,2.681,0,0,1,5.363,0v5.25A2.682,2.682,0,0,1,34.681,314.613Zm0,0" transform="translate(-32 -212.718)" fill="#f4f4e6"/>
    <path id="Path_93" data-name="Path 93" d="M66.681,314.613A2.682,2.682,0,0,1,64,311.932v-5.25a2.681,2.681,0,0,1,5.363,0v5.25A2.682,2.682,0,0,1,66.681,314.613Zm0,0" transform="translate(-53.274 -212.718)" fill="#f4f4e6"/>
    <path id="Path_94" data-name="Path 94" d="M34.681,266.613A2.682,2.682,0,0,1,32,263.932v-5.25a2.681,2.681,0,0,1,5.363,0v5.25A2.682,2.682,0,0,1,34.681,266.613Zm0,0" transform="translate(-32 -180.807)" fill="#f4f4e6"/>
    <path id="Path_95" data-name="Path 95" d="M45.407,37.027H34.681a2.681,2.681,0,1,1,0-5.363H45.407a2.681,2.681,0,1,1,0,5.363Zm0,0" transform="translate(-32 -31.664)" fill="#f4f4e6"/>
    <path id="Path_96" data-name="Path 96" d="M66.681,266.613A2.682,2.682,0,0,1,64,263.932v-5.25a2.681,2.681,0,0,1,5.363,0v5.25A2.682,2.682,0,0,1,66.681,266.613Zm0,0" transform="translate(-53.274 -180.807)" fill="#f4f4e6"/>
  </g>
  <path id="Path_97" data-name="Path 97" d="M40,199.664H50.726V210.39H40Zm0,0" transform="translate(-26.593 -132.741)" fill="#fdbd40"/>
  <path id="Path_98" data-name="Path 98" d="M40,135.664H50.726V146.39H40Zm0,0" transform="translate(-26.593 -90.192)" fill="#fdbd40"/>
  <path id="Path_99" data-name="Path 99" d="M40,71.664H50.726V82.39H40Zm0,0" transform="translate(-26.593 -47.644)" fill="#fdbd40"/>
  <path id="Path_100" data-name="Path 100" d="M288,264.04,296.046,256l45.586,45.585-8.046,8.046Zm0,0" transform="translate(-191.468 -170.191)" fill="#5a6470"/>
  <path id="Path_101" data-name="Path 101" d="M263.664,232l8.157,16.089,8.044-8.044Zm0,0" transform="translate(-175.289 -154.238)" fill="#aabece"/>
  <path id="Path_102" data-name="Path 102" d="M420,396.04,428.044,388l9.386,9.385-8.046,8.046Zm0,0" transform="translate(-279.224 -257.947)" fill="#aabece"/>
  <path id="Path_103" data-name="Path 103" d="M140.419,206.5l-10.666-13.346,4.187-3.352,6.478,8.106L149,187.183l8.579,10.728,8.588-10.723,10.68,13.34-4.182,3.352-6.5-8.111L157.567,206.5,149,195.775Zm0,0" transform="translate(-86.263 -124.443)" fill="#da1c4b"/>
  <path id="Path_104" data-name="Path 104" d="M169.485,98.726h-2.746A13.364,13.364,0,0,0,153.659,88h-3.142a13.406,13.406,0,0,0-13.3,11.744L136,109.452h45.584l-1.011-4.854c-.7-3.354-5.452-5.872-11.088-5.872Zm0,0" transform="translate(-90.415 -58.504)" fill="#36afad"/>
  <path id="Path_105" data-name="Path 105" d="M316.573,104.6c-.7-3.354-5.452-5.872-11.088-5.872h-2.746A13.364,13.364,0,0,0,289.659,88h-3.142a13.406,13.406,0,0,0-13.3,11.744L272,109.452h45.585Zm0,0" transform="translate(-180.831 -58.504)" fill="#36afad"/>
  <path id="Path_106" data-name="Path 106" d="M34.681,304A2.682,2.682,0,0,0,32,306.681v5.25a2.681,2.681,0,0,0,5.363,0v-5.25A2.682,2.682,0,0,0,34.681,304Zm0,0" transform="translate(-21.274 -202.105)"/>
  <path id="Path_107" data-name="Path 107" d="M66.681,304A2.682,2.682,0,0,0,64,306.681v5.25a2.681,2.681,0,0,0,5.363,0v-5.25A2.682,2.682,0,0,0,66.681,304Zm0,0" transform="translate(-42.548 -202.105)"/>
  <path id="Path_108" data-name="Path 108" d="M34.681,256A2.682,2.682,0,0,0,32,258.681v5.25a2.681,2.681,0,0,0,5.363,0v-5.25A2.682,2.682,0,0,0,34.681,256Zm0,0" transform="translate(-21.274 -170.194)"/>
  <path id="Path_109" data-name="Path 109" d="M45.407,31.664H34.681a2.681,2.681,0,1,0,0,5.363H45.407a2.681,2.681,0,1,0,0-5.363Zm0,0" transform="translate(-21.274 -21.051)"/>
  <path id="Path_110" data-name="Path 110" d="M66.681,256A2.682,2.682,0,0,0,64,258.681v5.25a2.681,2.681,0,0,0,5.363,0v-5.25A2.682,2.682,0,0,0,66.681,256Zm0,0" transform="translate(-42.548 -170.194)"/>
  <path id="Path_111" data-name="Path 111" d="M45.407,191.664H34.681A2.682,2.682,0,0,0,32,194.345v10.726a2.682,2.682,0,0,0,2.681,2.681H45.407a2.682,2.682,0,0,0,2.681-2.681V194.345A2.682,2.682,0,0,0,45.407,191.664ZM42.726,202.39H37.363v-5.363h5.363Zm0,0" transform="translate(-21.274 -127.422)"/>
  <path id="Path_112" data-name="Path 112" d="M45.407,127.664H34.681A2.682,2.682,0,0,0,32,130.345v10.726a2.682,2.682,0,0,0,2.681,2.681H45.407a2.682,2.682,0,0,0,2.681-2.681V130.345A2.682,2.682,0,0,0,45.407,127.664ZM42.726,138.39H37.363v-5.363h5.363Zm0,0" transform="translate(-21.274 -84.874)"/>
  <path id="Path_113" data-name="Path 113" d="M45.407,63.664H34.681A2.682,2.682,0,0,0,32,66.346V77.071a2.682,2.682,0,0,0,2.681,2.681H45.407a2.682,2.682,0,0,0,2.681-2.681V66.346A2.682,2.682,0,0,0,45.407,63.664ZM42.726,74.39H37.363V69.027h5.363Zm0,0" transform="translate(-21.274 -42.325)"/>
  <path id="Path_114" data-name="Path 114" d="M209.752,90.726h-.7A16.12,16.12,0,0,0,193.927,80h-3.142a16.115,16.115,0,0,0-15.96,14.067,17.078,17.078,0,0,0-10.656-3.341h-.7A16.12,16.12,0,0,0,148.342,80H145.2a16.116,16.116,0,0,0-15.966,14.093l-1.212,9.707a2.682,2.682,0,0,0,2.66,3.014h91.169a2.682,2.682,0,0,0,2.625-3.218l-1.011-4.852c-.968-4.651-6.734-8.018-13.714-8.018Zm-75.2,4.022A10.745,10.745,0,0,1,145.2,85.363h3.142A10.726,10.726,0,0,1,157.8,91.1c-5.2.968-9.173,3.861-9.958,7.631l-.566,2.719H133.72Zm18.194,6.7.338-1.625c.389-1.8,3.874-3.738,8.466-3.738h2.616c4.6,0,8.088,1.934,8.466,3.738l.338,1.625Zm27.391-6.7a10.745,10.745,0,0,1,10.646-9.385h3.142a10.726,10.726,0,0,1,9.454,5.739c-5.2.968-9.173,3.861-9.959,7.631l-.566,2.719H179.3Zm18.194,6.7.338-1.625c.389-1.8,3.874-3.738,8.466-3.738h2.616c4.6,0,8.088,1.934,8.466,3.738l.338,1.625Zm0,0" transform="translate(-85.098 -53.186)"/>
  <path id="Path_115" data-name="Path 115" d="M152.842,0H8.044A8.045,8.045,0,0,0,0,8.044V115.3a8.045,8.045,0,0,0,8.044,8.044H122.236l26.029,26.029a2.683,2.683,0,0,0,3.792,0l8.044-8.044a2.683,2.683,0,0,0,0-3.792l-14.193-14.193h6.934a8.045,8.045,0,0,0,8.044-8.044V8.044A8.045,8.045,0,0,0,152.842,0ZM100.323,93.85l4.253-4.253,40.452,40.452-4.253,4.253Zm29.5,13.407L106.472,83.91a2.5,2.5,0,0,0-.488-.325c-.08-.051-.128-.136-.217-.182L90.284,75.715,79.906,62.745l-8.58,10.726L62.745,62.745l-8.58,10.726-6.478-8.106L43.5,68.717,54.165,82.052l8.58-10.726,8.581,10.726,8.594-10.726,6.057,7.564c.013.027.013.056.027.084l8.157,16.089c.045.088.134.139.187.22a2.688,2.688,0,0,0,.308.463l11.49,11.511H37.54V16.089H144.8v91.169Zm-35.4-23.5,5.631,2.791-2.789,2.789Zm55.737,59.931-4.253-4.253,4.253-4.253,4.253,4.253Zm5.363-28.386a2.682,2.682,0,0,1-2.681,2.681h-12.3l-5.363-5.363h12.3a2.682,2.682,0,0,0,2.681-2.681V13.407a2.682,2.682,0,0,0-2.681-2.681H34.858a2.682,2.682,0,0,0-2.681,2.681v96.532a2.682,2.682,0,0,0,2.681,2.681H111.51l5.363,5.363H8.044A2.682,2.682,0,0,1,5.363,115.3V8.044A2.682,2.682,0,0,1,8.044,5.363h144.8a2.682,2.682,0,0,1,2.681,2.681Zm0,0"/>
</svg>
