<svg xmlns="http://www.w3.org/2000/svg" width="195.86" height="150.16" viewBox="0 0 195.86 150.16">
  <g id="controller" transform="translate(-2 -8)">
    <path id="Path_141" data-name="Path 141" d="M159.731,33H35.686A32.643,32.643,0,1,0,55.213,91.758H140.2A32.643,32.643,0,1,0,159.731,33Z" transform="translate(2.222 56.608)" fill="#e8e8e8"/>
    <circle id="Ellipse_22" data-name="Ellipse 22" cx="6.5" cy="6.5" r="6.5" transform="translate(152 126)" fill="#dd3e46"/>
    <ellipse id="Ellipse_23" data-name="Ellipse 23" cx="7" cy="6.5" rx="7" ry="6.5" transform="translate(168 109)" fill="#dd3e46"/>
    <circle id="Ellipse_24" data-name="Ellipse 24" cx="6.5" cy="6.5" r="6.5" transform="translate(123 119)" fill="#dd3e46"/>
    <circle id="Ellipse_25" data-name="Ellipse 25" cx="6.5" cy="6.5" r="6.5" transform="translate(139 103)" fill="#dd3e46"/>
    <path id="Path_142" data-name="Path 142" d="M39.643,47.793H29.85V38H16.793v9.793H7V60.85h9.793v9.793H29.85V60.85h9.793Z" transform="translate(11.322 67.93)" fill="#113142"/>
    <path id="Path_143" data-name="Path 143" d="M26.264,61.586a3.264,3.264,0,0,1-2.308-5.572L37.013,42.956a3.264,3.264,0,1,1,4.616,4.616L28.572,60.63A3.264,3.264,0,0,1,26.264,61.586Z" transform="translate(47.552 76.988)" fill="#113142"/>
    <path id="Path_144" data-name="Path 144" d="M31.264,61.586a3.264,3.264,0,0,1-2.308-5.572L42.013,42.956a3.264,3.264,0,1,1,4.616,4.616L33.572,60.63A3.264,3.264,0,0,1,31.264,61.586Z" transform="translate(58.873 76.988)" fill="#113142"/>
    <rect id="Rectangle_13" data-name="Rectangle 13" width="26" height="7" transform="translate(87 99)" fill="#113142"/>
    <rect id="Rectangle_14" data-name="Rectangle 14" width="6" height="7" transform="translate(74 99)" fill="#113142"/>
    <rect id="Rectangle_15" data-name="Rectangle 15" width="78" height="13" transform="translate(61 77)" fill="#6b809b"/>
    <path id="Path_145" data-name="Path 145" d="M66.965,76.551H60.436V63.494a3.264,3.264,0,0,0-3.264-3.264H27.793A9.793,9.793,0,0,1,18,50.436V43.908a9.793,9.793,0,0,1,9.793-9.793H96.344a3.264,3.264,0,0,0,3.264-3.264V24.322a3.264,3.264,0,0,0-3.264-3.264H27.793A9.793,9.793,0,0,1,18,11.264V8h6.529v3.264a3.264,3.264,0,0,0,3.264,3.264H96.344a9.793,9.793,0,0,1,9.793,9.793V30.85a9.793,9.793,0,0,1-9.793,9.793H27.793a3.264,3.264,0,0,0-3.264,3.264v6.529A3.264,3.264,0,0,0,27.793,53.7H57.172a9.793,9.793,0,0,1,9.793,9.793Z" transform="translate(36.229)" fill="#113142"/>
    <path id="Path_146" data-name="Path 146" d="M161.953,86.344H142.367V73.287H103.195V63.494A9.793,9.793,0,0,0,93.4,53.7H64.022a3.264,3.264,0,0,1-3.264-3.264V43.908a3.264,3.264,0,0,1,3.264-3.264h68.551a9.793,9.793,0,0,0,9.793-9.793V24.322a9.793,9.793,0,0,0-9.793-9.793H64.022a3.264,3.264,0,0,1-3.264-3.264V8H54.229v3.264a9.793,9.793,0,0,0,9.793,9.793h68.551a3.264,3.264,0,0,1,3.264,3.264V30.85a3.264,3.264,0,0,1-3.264,3.264H64.022a9.793,9.793,0,0,0-9.793,9.793v6.529a9.793,9.793,0,0,0,9.793,9.793H93.4a3.264,3.264,0,0,1,3.264,3.264v9.793H57.494V86.344H37.908a35.908,35.908,0,1,0,0,71.815,35.542,35.542,0,0,0,20.585-6.529h82.875a35.542,35.542,0,0,0,20.585,6.529,35.908,35.908,0,0,0,0-71.815Zm-97.93-6.529h71.816v6.529H64.022Zm97.93,71.816a29.115,29.115,0,0,1-17.569-5.876l-.868-.653H56.358l-.868.653A29.368,29.368,0,1,1,37.908,92.873H161.953a29.379,29.379,0,1,1,0,58.758Z"/>
    <path id="Path_147" data-name="Path 147" d="M56.793,43a9.793,9.793,0,1,0,9.793,9.793A9.793,9.793,0,0,0,56.793,43Zm0,13.057a3.264,3.264,0,1,1,3.264-3.264A3.264,3.264,0,0,1,56.793,56.057Z" transform="translate(101.895 79.252)"/>
    <path id="Path_148" data-name="Path 148" d="M61.793,38a9.793,9.793,0,1,0,9.793,9.793A9.793,9.793,0,0,0,61.793,38Zm0,13.057a3.264,3.264,0,1,1,3.264-3.264A3.264,3.264,0,0,1,61.793,51.057Z" transform="translate(113.217 67.93)"/>
    <path id="Path_149" data-name="Path 149" d="M47.793,41a9.793,9.793,0,1,0,9.793,9.793A9.793,9.793,0,0,0,47.793,41Zm0,13.057a3.264,3.264,0,1,1,3.264-3.264A3.264,3.264,0,0,1,47.793,54.057Z" transform="translate(81.516 74.723)"/>
    <path id="Path_150" data-name="Path 150" d="M62.586,45.793a9.793,9.793,0,1,0-9.793,9.793A9.793,9.793,0,0,0,62.586,45.793Zm-9.793,3.264a3.264,3.264,0,1,1,3.264-3.264A3.264,3.264,0,0,1,52.793,49.057Z" transform="translate(92.838 63.402)"/>
    <path id="Path_151" data-name="Path 151" d="M35.379,37H15.793v9.793H6V66.379h9.793v9.793H35.379V66.379h9.793V46.793H35.379Zm3.264,16.322V59.85H28.85v9.793H22.322V59.85H12.529V53.322h9.793V43.529H28.85v9.793Z" transform="translate(9.057 65.666)"/>
    <path id="Path_152" data-name="Path 152" d="M41.63,42.956a3.264,3.264,0,0,0-4.616,0L23.956,56.013a3.264,3.264,0,1,0,4.616,4.616L41.63,47.572A3.264,3.264,0,0,0,41.63,42.956Z" transform="translate(47.551 76.988)"/>
    <path id="Path_153" data-name="Path 153" d="M42.014,42.956,28.956,56.014a3.264,3.264,0,1,0,4.616,4.616L46.63,47.572a3.264,3.264,0,1,0-4.616-4.616Z" transform="translate(58.873 76.988)"/>
    <rect id="Rectangle_16" data-name="Rectangle 16" width="26" height="7" transform="translate(87 99)"/>
    <rect id="Rectangle_17" data-name="Rectangle 17" width="6" height="7" transform="translate(120 99)"/>
    <rect id="Rectangle_18" data-name="Rectangle 18" width="6" height="7" transform="translate(74 99)"/>
  </g>
</svg>
