<svg id="email_search" xmlns="http://www.w3.org/2000/svg" width="150.16" height="150.16" viewBox="0 0 150.16 150.16">
  <path id="Path_22" data-name="Path 22" d="M8,8H153.154V153.154H8ZM8,8" transform="translate(-5.497 -5.497)" fill="#80caca"/>
  <path id="Path_23" data-name="Path 23" d="M8,8H48.043V28.021H8ZM8,8" transform="translate(-5.497 -5.497)" fill="#ffd481"/>
  <path id="Path_24" data-name="Path 24" d="M40,296H165.133v45.048H40Zm0,0" transform="translate(-27.487 -203.402)" fill="#d2f4ca"/>
  <path id="Path_25" data-name="Path 25" d="M32,32h5.005v5.005H32Zm0,0" transform="translate(-21.989 -21.989)" fill="#3373a7"/>
  <path id="Path_26" data-name="Path 26" d="M64,32h5.005v5.005H64Zm0,0" transform="translate(-43.979 -21.989)" fill="#3373a7"/>
  <path id="Path_27" data-name="Path 27" d="M96,32h5.005v5.005H96Zm0,0" transform="translate(-65.968 -21.989)" fill="#3373a7"/>
  <path id="Path_28" data-name="Path 28" d="M136,8H241.112V28.021H136Zm0,0" transform="translate(-93.455 -5.497)" fill="#35729e"/>
  <path id="Path_29" data-name="Path 29" d="M340.021,338.011A10.011,10.011,0,1,1,330.011,328,10.011,10.011,0,0,1,340.021,338.011Zm0,0" transform="translate(-219.894 -225.391)" fill="#80caca"/>
  <path id="Path_30" data-name="Path 30" d="M370.344,381.886l3.54-3.539,10.011,10.011-3.539,3.539Zm0,0" transform="translate(-254.488 -259.988)" fill="#3c72a6"/>
  <path id="Path_31" data-name="Path 31" d="M264,360h5.005v5.005H264Zm0,0" transform="translate(-181.412 -247.38)" fill="#f4fffc"/>
  <path id="Path_32" data-name="Path 32" d="M232,360h5.005v5.005H232Zm0,0" transform="translate(-159.423 -247.38)" fill="#f4fffc"/>
  <path id="Path_33" data-name="Path 33" d="M200,360h5.005v5.005H200Zm0,0" transform="translate(-137.433 -247.38)" fill="#f4fffc"/>
  <path id="Path_34" data-name="Path 34" d="M144,104h75.08v50.053H144Zm0,0" transform="translate(-98.952 -71.465)" fill="#de7f4a"/>
  <path id="Path_35" data-name="Path 35" d="M144,104l37.54,25.027L219.08,104Zm0,0" transform="translate(-98.952 -71.465)" fill="#fdd780"/>
  <g id="Group_3" data-name="Group 3" transform="translate(17.519 30.032)">
    <path id="Path_36" data-name="Path 36" d="M56,256H76.021v5.005H56Zm0,0" transform="translate(-56 -205.947)" fill="#f4fffc"/>
    <path id="Path_37" data-name="Path 37" d="M72,224H87.016v5.005H72Zm0,0" transform="translate(-66.995 -183.957)" fill="#f4fffc"/>
    <path id="Path_38" data-name="Path 38" d="M104,120h5.005v5.005H104Zm0,0" transform="translate(-88.984 -112.492)" fill="#f4fffc"/>
    <path id="Path_39" data-name="Path 39" d="M432,96h5.005v5.005H432Zm0,0" transform="translate(-314.375 -96)" fill="#f4fffc"/>
  </g>
  <path id="Path_40" data-name="Path 40" d="M338.011,218.011H328v-5.005h5.005V208h5.005Zm0,0" transform="translate(-225.391 -142.931)" fill="#ffc98d"/>
  <path id="Path_41" data-name="Path 41" d="M102.032,356.021H72V336h30.032Zm0,0" transform="translate(-49.476 -230.888)" fill="#de7f4a"/>
  <path id="Path_42" data-name="Path 42" d="M87.016,346.011,72,336h30.032Zm0,0" transform="translate(-49.476 -230.888)" fill="#fdd780"/>
  <path id="Path_43" data-name="Path 43" d="M32,32h5.005v5.005H32Zm0,0" transform="translate(-21.989 -21.989)"/>
  <path id="Path_44" data-name="Path 44" d="M64,32h5.005v5.005H64Zm0,0" transform="translate(-43.979 -21.989)"/>
  <path id="Path_45" data-name="Path 45" d="M96,32h5.005v5.005H96Zm0,0" transform="translate(-65.968 -21.989)"/>
  <path id="Path_46" data-name="Path 46" d="M147.657,0H2.5A2.5,2.5,0,0,0,0,2.5V147.657a2.5,2.5,0,0,0,2.5,2.5H147.657a2.5,2.5,0,0,0,2.5-2.5V2.5A2.5,2.5,0,0,0,147.657,0ZM5.005,5.005H40.043V20.021H5.005ZM145.154,145.154H5.005V25.027H145.154Zm0-125.133H45.048V5.005H145.154Zm0,0"/>
  <path id="Path_47" data-name="Path 47" d="M324.472,345.026a12.433,12.433,0,0,0,6.89-2.085l8.86,8.86,3.539-3.539-8.86-8.86a12.513,12.513,0,1,0-10.429,5.624Zm0-20.021a7.508,7.508,0,1,1-7.508,7.508A7.508,7.508,0,0,1,324.472,325Zm0,0" transform="translate(-214.355 -219.893)"/>
  <path id="Path_48" data-name="Path 48" d="M159.636,288H34.5a2.5,2.5,0,0,0-2.5,2.5v45.048a2.5,2.5,0,0,0,2.5,2.5H159.636a2.5,2.5,0,0,0,2.5-2.5V290.5A2.5,2.5,0,0,0,159.636,288Zm-2.5,45.048H37.005V293.005H157.133Zm0,0" transform="translate(-21.989 -197.904)"/>
  <path id="Path_49" data-name="Path 49" d="M264,360h5.005v5.005H264Zm0,0" transform="translate(-181.412 -247.38)"/>
  <path id="Path_50" data-name="Path 50" d="M232,360h5.005v5.005H232Zm0,0" transform="translate(-159.423 -247.38)"/>
  <path id="Path_51" data-name="Path 51" d="M200,360h5.005v5.005H200Zm0,0" transform="translate(-137.433 -247.38)"/>
  <path id="Path_52" data-name="Path 52" d="M136,148.556a2.5,2.5,0,0,0,2.5,2.5h75.08a2.5,2.5,0,0,0,2.5-2.5V98.5a2.5,2.5,0,0,0-2.5-2.5H138.5a2.5,2.5,0,0,0-2.5,2.5Zm69.324-47.551-29.282,19.52-29.282-19.52Zm-64.319,2.173,33.648,22.434a2.5,2.5,0,0,0,2.779,0l33.648-22.434v42.875H141.006Zm0,0" transform="translate(-93.455 -65.968)"/>
  <path id="Path_53" data-name="Path 53" d="M56,256H76.021v5.005H56Zm0,0" transform="translate(-38.481 -175.915)"/>
  <path id="Path_54" data-name="Path 54" d="M72,224H87.016v5.005H72Zm0,0" transform="translate(-49.476 -153.925)"/>
  <path id="Path_55" data-name="Path 55" d="M104,120h5.005v5.005H104Zm0,0" transform="translate(-71.465 -82.46)"/>
  <path id="Path_56" data-name="Path 56" d="M432,96h5.005v5.005H432Zm0,0" transform="translate(-296.856 -65.968)"/>
  <path id="Path_57" data-name="Path 57" d="M333.005,213.005H328v5.005h10.011V208h-5.005Zm0,0" transform="translate(-225.391 -142.931)"/>
  <path id="Path_58" data-name="Path 58" d="M66.5,353.027H96.535a2.5,2.5,0,0,0,2.5-2.5V330.5a2.5,2.5,0,0,0-2.5-2.5H66.5a2.5,2.5,0,0,0-2.5,2.5v20.021A2.5,2.5,0,0,0,66.5,353.027Zm21.774-20.021-6.758,4.5-6.758-4.5Zm-19.271,2.173L80.129,342.6a2.5,2.5,0,0,0,2.779,0l11.124-7.418v12.843H69.005Zm0,0" transform="translate(-43.979 -225.391)"/>
</svg>
