<svg xmlns="http://www.w3.org/2000/svg" width="90.096" height="150.16" viewBox="0 0 90.096 150.16">
  <g id="Map" transform="translate(-14 -2)">
    <rect id="Rectangle_12" data-name="Rectangle 12" width="85" height="145" rx="4" transform="translate(17 5)" fill="#394d5c"/>
    <path id="Path_127" data-name="Path 127" d="M15,11h85.091V116.112H15Z" transform="translate(1.503 13.524)" fill="#f4f4e6"/>
    <path id="Path_128" data-name="Path 128" d="M26,3H56.032V13.011H26Z" transform="translate(18.032 1.503)" fill="#7d8d9c"/>
    <path id="Path_129" data-name="Path 129" d="M57.021,23.011c0,5.528-10.011,20.021-10.011,20.021S37,28.539,37,23.011a10.011,10.011,0,1,1,20.021,0Z" transform="translate(34.561 16.529)" fill="#d75745"/>
    <path id="Path_130" data-name="Path 130" d="M37,27H57.021V42.016H37Z" transform="translate(34.561 37.567)" fill="#55b56a"/>
    <path id="Path_131" data-name="Path 131" d="M34.016,51.032V21H19V66.048H44.027V51.032Z" transform="translate(7.513 28.551)" fill="#c8d952"/>
    <path id="Path_132" data-name="Path 132" d="M19,43H44.027V58.016H19Z" transform="translate(7.513 61.609)" fill="#c8d952"/>
    <path id="Path_133" data-name="Path 133" d="M37,41H57.021V51.011H37Z" transform="translate(34.561 58.604)" fill="#55b56a"/>
    <path id="Path_134" data-name="Path 134" d="M26.513,152.16H91.583A12.528,12.528,0,0,0,104.1,139.646V14.513A12.528,12.528,0,0,0,91.583,2H26.513A12.528,12.528,0,0,0,14,14.513V139.646A12.528,12.528,0,0,0,26.513,152.16ZM64.053,92.1H99.091v25.027H66.556a2.5,2.5,0,0,1-2.5-2.5Zm35.037-5.005H64.053V74.577a7.508,7.508,0,0,0-7.508-7.508,2.5,2.5,0,0,1-2.5-2.5V44.545a7.508,7.508,0,0,0-7.508-7.508H19.005V27.027H99.091ZM19.005,42.043H46.535a2.5,2.5,0,0,1,2.5,2.5V64.567a7.508,7.508,0,0,0,7.508,7.508,2.5,2.5,0,0,1,2.5,2.5V114.62a7.508,7.508,0,0,0,7.508,7.508H99.091v5.005H19.005ZM71.561,7.005v5.005H46.535V7.005ZM19.005,14.513a7.508,7.508,0,0,1,7.508-7.508H41.529v7.508a2.5,2.5,0,0,0,2.5,2.5H74.064a2.5,2.5,0,0,0,2.5-2.5V7.005H91.583a7.508,7.508,0,0,1,7.508,7.508v7.508H19.005ZM99.091,132.138v7.508a7.508,7.508,0,0,1-7.508,7.508H26.513a7.508,7.508,0,0,1-7.508-7.508v-7.508Z"/>
    <path id="Path_135" data-name="Path 135" d="M23,56H68.048v5.005H23Z" transform="translate(13.524 81.144)"/>
    <path id="Path_136" data-name="Path 136" d="M36,24.513c0,6.006,8.707,18.918,10.454,21.443a2.5,2.5,0,0,0,4.119,0C52.32,43.431,61.027,30.52,61.027,24.513a12.513,12.513,0,1,0-25.027,0Zm12.513-7.508a7.508,7.508,0,0,1,7.508,7.508c0,2.733-3.907,9.868-7.508,15.5-3.6-5.628-7.508-12.764-7.508-15.5A7.508,7.508,0,0,1,48.513,17.005Z" transform="translate(33.059 15.027)"/>
    <path id="Path_137" data-name="Path 137" d="M36,46.021H61.027V26H36Zm5.005-15.016H56.021V41.016H41.005Z" transform="translate(33.059 36.064)"/>
    <path id="Path_138" data-name="Path 138" d="M38.021,20H18V70.053H48.032V50.032H38.021Zm5.005,35.037V65.048H23.005V25.005H33.016V55.037Z" transform="translate(6.011 27.048)"/>
    <path id="Path_139" data-name="Path 139" d="M18,62.021H48.032V42H18Zm5.005-15.016H43.027V57.016H23.005Z" transform="translate(6.011 60.106)"/>
    <path id="Path_140" data-name="Path 140" d="M61.027,40H36V55.016H61.027ZM56.021,50.011H41.005V45.005H56.021Z" transform="translate(33.059 57.101)"/>
  </g>
</svg>
