<svg xmlns="http://www.w3.org/2000/svg" width="154.227" height="150.16" viewBox="0 0 154.227 150.16">
  <g id="pokemon" transform="translate(0 -0.496)">
    <path id="Path_1" data-name="Path 1" d="M120.046,158.637A55.74,55.74,0,1,1,64.307,102.9,55.739,55.739,0,0,1,120.046,158.637Zm0,0" transform="translate(-5.458 -65.241)" fill="#c1dbdc"/>
    <path id="Path_2" data-name="Path 2" d="M134.631,313.457c29.315,0,53.08-23.973,53.08-53.543H81.551c0,29.57,23.764,53.543,53.08,53.543Zm0,0" transform="translate(-51.957 -165.278)" fill="#fff"/>
    <path id="Path_3" data-name="Path 3" d="M130.281,311.583c-30.633,0-55.555-25.13-55.555-56.02a2.476,2.476,0,0,1,2.476-2.478H183.36a2.477,2.477,0,0,1,2.478,2.478c0,30.89-24.923,56.02-55.558,56.02ZM79.74,258.04c1.283,27.011,23.463,48.588,50.541,48.588s49.261-21.576,50.544-48.588Zm0,0" transform="translate(-47.609 -160.928)" fill="#4c241d"/>
    <path id="Path_4" data-name="Path 4" d="M152.934,118.133a53.414,53.414,0,0,0-18.3-3.211c-29.316,0-53.08,23.557-53.08,52.616H187.71a52.263,52.263,0,0,0-16.792-38.4" transform="translate(-51.957 -72.902)" fill="#f53e28"/>
    <path id="Path_5" data-name="Path 5" d="M183.361,165.664H77.2a2.477,2.477,0,0,1-2.476-2.478c0-30.379,24.922-55.093,55.555-55.093a55.762,55.762,0,0,1,19.152,3.362,2.476,2.476,0,1,1-1.7,4.654,50.9,50.9,0,0,0-17.457-3.06c-27.064,0-49.233,21.16-50.54,47.66H180.825A49.425,49.425,0,0,0,164.884,126.6a2.477,2.477,0,0,1,3.372-3.629,55.086,55.086,0,0,1,17.585,40.215,2.479,2.479,0,0,1-2.479,2.476Zm0,0" transform="translate(-47.609 -68.552)" fill="#4c241d"/>
    <path id="Path_6" data-name="Path 6" d="M303.5,136.07q-1.32-.872-2.7-1.664" transform="translate(-191.648 -85.315)" fill="#f53e28"/>
    <path id="Path_7" data-name="Path 7" d="M299.154,134.195a2.467,2.467,0,0,1-1.361-.408q-1.261-.831-2.57-1.586a2.478,2.478,0,0,1,2.478-4.292q1.437.831,2.82,1.742a2.476,2.476,0,0,1-1.367,4.545Zm0,0" transform="translate(-187.301 -80.964)" fill="#4c241d"/>
    <path id="Path_8" data-name="Path 8" d="M215.008,231.423a16.955,16.955,0,1,1-16.955-16.955A16.955,16.955,0,0,1,215.008,231.423Zm0,0" transform="translate(-115.379 -136.324)" fill="#edebdc"/>
    <path id="Path_9" data-name="Path 9" d="M193.7,246.5a19.434,19.434,0,1,1,19.434-19.433A19.454,19.454,0,0,1,193.7,246.5Zm0-33.912a14.479,14.479,0,1,0,14.48,14.479A14.494,14.494,0,0,0,193.7,212.592Zm0,0" transform="translate(-111.029 -131.971)" fill="#4c241d"/>
    <path id="Path_10" data-name="Path 10" d="M222.243,248.232a7.381,7.381,0,1,1-7.381-7.381A7.381,7.381,0,0,1,222.243,248.232Zm0,0" transform="translate(-132.188 -153.133)" fill="#edebdc"/>
    <g id="Group_2" data-name="Group 2" transform="translate(0 0.496)">
      <path id="Path_11" data-name="Path 11" d="M210.509,253.739a9.858,9.858,0,1,1,9.859-9.858A9.87,9.87,0,0,1,210.509,253.739Zm0-14.762a4.9,4.9,0,1,0,4.9,4.9A4.911,4.911,0,0,0,210.509,238.977Zm0,0" transform="translate(-127.837 -149.278)" fill="#4c241d"/>
      <path id="Path_12" data-name="Path 12" d="M379.685,40.191a2.479,2.479,0,0,1-2.478-2.478V30.281a2.477,2.477,0,0,1,4.954,0v7.432A2.477,2.477,0,0,1,379.685,40.191Zm0,0" transform="translate(-240.322 -17.895)" fill="#4c241d"/>
      <path id="Path_13" data-name="Path 13" d="M379.685,87.977a2.477,2.477,0,0,1-2.478-2.476V78.068a2.477,2.477,0,1,1,4.954,0V85.5A2.476,2.476,0,0,1,379.685,87.977Zm0,0" transform="translate(-240.322 -48.339)" fill="#4c241d"/>
      <path id="Path_14" data-name="Path 14" d="M352.984,66.892h-7.432a2.477,2.477,0,1,1,0-4.954h7.432a2.477,2.477,0,0,1,0,4.954Zm0,0" transform="translate(-218.576 -39.641)" fill="#4c241d"/>
      <path id="Path_15" data-name="Path 15" d="M400.769,66.892h-7.432a2.477,2.477,0,1,1,0-4.954h7.432a2.477,2.477,0,1,1,0,4.954Zm0,0" transform="translate(-249.02 -39.641)" fill="#4c241d"/>
      <path id="Path_16" data-name="Path 16" d="M7.635,183.046a7.651,7.651,0,1,1,2.227-.332,7.6,7.6,0,0,1-2.227.332Zm.009-10.332a2.69,2.69,0,0,0-2.367,1.42,2.686,2.686,0,1,0,2.367-1.42Zm0,0" transform="translate(0 -107.06)" fill="#4c241d"/>
      <path id="Path_17" data-name="Path 17" d="M21.141,15.779a7.641,7.641,0,1,1,7.642-7.641,7.649,7.649,0,0,1-7.642,7.641Zm0-10.327a2.686,2.686,0,1,0,2.686,2.686A2.688,2.688,0,0,0,21.141,5.452Zm0,0" transform="translate(-8.601 -0.496)" fill="#4c241d"/>
      <path id="Path_18" data-name="Path 18" d="M94.721,93.194a2.477,2.477,0,0,1-1.752-4.229l7.3-7.3a2.477,2.477,0,1,1,3.5,3.5l-7.3,7.3a2.471,2.471,0,0,1-1.751.726Zm0,0" transform="translate(-58.77 -51.745)" fill="#4c241d"/>
      <path id="Path_19" data-name="Path 19" d="M102.022,93.194a2.474,2.474,0,0,1-1.752-.726l-7.3-7.3a2.477,2.477,0,0,1,3.5-3.5l7.3,7.3a2.477,2.477,0,0,1-1.751,4.229Zm0,0" transform="translate(-58.767 -51.745)" fill="#4c241d"/>
      <path id="Path_20" data-name="Path 20" d="M209.524,26.326a4.131,4.131,0,1,1-4.132-4.131A4.132,4.132,0,0,1,209.524,26.326Zm0,0" transform="translate(-128.226 -14.321)" fill="#4c241d"/>
      <path id="Path_21" data-name="Path 21" d="M400.669,169.686a4.131,4.131,0,1,1-4.131-4.131A4.131,4.131,0,0,1,400.669,169.686Zm0,0" transform="translate(-250.006 -105.657)" fill="#4c241d"/>
    </g>
  </g>
</svg>
