<svg xmlns="http://www.w3.org/2000/svg" width="64.315" height="150.16" viewBox="0 0 64.315 150.16">
  <g id="pokedex" transform="translate(-36.429)">
    <g id="Group_6" data-name="Group 6" transform="translate(38.196 1.767)">
      <path id="Path_116" data-name="Path 116" d="M98.709,46.843a30.246,30.246,0,0,0-7.166-19.57V14.205a4.925,4.925,0,0,0-1.387-3.426A30.369,30.369,0,0,0,37.935,31.885a27.722,27.722,0,0,0,.161,2.934,4.9,4.9,0,0,0-.167,1.27v92.4a4.933,4.933,0,0,0,2.466,4.271l25.46,14.7a4.938,4.938,0,0,0,4.932,0l18.289-10.561a4.935,4.935,0,0,0,2.466-4.271V66.414A30.245,30.245,0,0,0,98.709,46.843Z" transform="translate(-37.929 -1.5)" fill="#fff"/>
    </g>
    <g id="Group_7" data-name="Group 7" transform="translate(38.195 11.694)">
      <path id="Path_117" data-name="Path 117" d="M98.284,50.305A30.273,30.273,0,0,0,91.542,35.7V22.633A4.926,4.926,0,0,0,90.155,19.2,30.369,30.369,0,0,0,37.934,40.311a27.645,27.645,0,0,0,.161,2.932,4.936,4.936,0,0,0-.167,1.273v82.476a4.933,4.933,0,0,0,2.466,4.271l25.46,14.7a4.938,4.938,0,0,0,4.932,0L89.075,135.4a4.935,4.935,0,0,0,2.466-4.271V64.912A30.283,30.283,0,0,0,98.284,50.305Z" transform="translate(-37.928 -9.925)" fill="#d3eff4"/>
    </g>
    <g id="Group_8" data-name="Group 8" transform="translate(36.429)">
      <path id="Path_118" data-name="Path 118" d="M68.589,150.16a6.72,6.72,0,0,1-3.349-.9l-25.461-14.7a6.718,6.718,0,0,1-3.35-5.8v-92.4a6.7,6.7,0,0,1,.146-1.389c-.094-.973-.14-1.9-.14-2.815A32.136,32.136,0,0,1,91.693,9.819a6.658,6.658,0,0,1,1.884,4.655V26.906a32.07,32.07,0,0,1,0,40.412V132.9a6.719,6.719,0,0,1-3.35,5.8L71.938,149.265A6.73,6.73,0,0,1,68.589,150.16Zm0-146.625A28.651,28.651,0,0,0,39.97,32.153a26.039,26.039,0,0,0,.151,2.749,1.766,1.766,0,0,1-.049.643,3.09,3.09,0,0,0-.107.812v92.4a3.175,3.175,0,0,0,1.582,2.741l25.46,14.7a3.224,3.224,0,0,0,3.166,0l18.288-10.56a3.176,3.176,0,0,0,1.582-2.741V66.682a1.767,1.767,0,0,1,.417-1.141,28.536,28.536,0,0,0,0-36.861,1.767,1.767,0,0,1-.417-1.141V14.473a3.147,3.147,0,0,0-.888-2.2A28.381,28.381,0,0,0,68.589,3.535Z" transform="translate(-36.429)" fill="#33363a"/>
    </g>
    <g id="Group_9" data-name="Group 9" transform="translate(51.635 29.248)">
      <circle id="Ellipse_19" data-name="Ellipse 19" cx="16.952" cy="16.952" r="16.952" fill="#0086ff"/>
    </g>
    <g id="Group_10" data-name="Group 10" transform="translate(51.635 46.2)">
      <path id="Path_119" data-name="Path 119" d="M49.334,39.21a16.952,16.952,0,0,0,33.9,0Z" transform="translate(-49.334 -39.21)" fill="#fff"/>
    </g>
    <g id="Group_11" data-name="Group 11" transform="translate(51.635 46.2)">
      <path id="Path_120" data-name="Path 120" d="M66.286,52.195c9.361,0,16.952-5.814,16.952-12.985h-33.9C49.334,46.381,56.923,52.195,66.286,52.195Z" transform="translate(-49.334 -39.21)" fill="#d8e5ea"/>
    </g>
    <path id="Path_121" data-name="Path 121" d="M85.271,43.575a18.74,18.74,0,0,0-16.965-18.63c0-.044.013-.086.013-.131V16.492a1.767,1.767,0,1,0-3.535,0v8.322c0,.045.009.086.013.131a18.711,18.711,0,0,0,0,37.259c0,.044-.013.086-.013.131v8.322a1.767,1.767,0,0,0,3.535,0V62.335c0-.045-.009-.086-.013-.131A18.74,18.74,0,0,0,85.271,43.575ZM66.553,28.391A15.2,15.2,0,0,1,81.626,41.808H51.481A15.2,15.2,0,0,1,66.553,28.391Zm0,30.369A15.2,15.2,0,0,1,51.481,45.342H81.626A15.2,15.2,0,0,1,66.553,58.759Z" transform="translate(2.033 2.625)" fill="#33363a"/>
    <g id="Group_12" data-name="Group 12" transform="translate(46.48 94.629)">
      <path id="Path_122" data-name="Path 122" d="M49.419,89.231a4.46,4.46,0,1,1,4.46-4.46A4.465,4.465,0,0,1,49.419,89.231Zm0-5.385a.925.925,0,1,0,.925.925A.926.926,0,0,0,49.419,83.847Z" transform="translate(-44.959 -80.312)" fill="#33363a"/>
    </g>
    <g id="Group_13" data-name="Group 13" transform="translate(46.48 110.657)">
      <path id="Path_123" data-name="Path 123" d="M52.111,97.45H46.726a1.767,1.767,0,0,1,0-3.535h5.385a1.767,1.767,0,0,1,0,3.535Z" transform="translate(-44.959 -93.915)" fill="#33363a"/>
    </g>
    <g id="Group_14" data-name="Group 14" transform="translate(46.48 118.672)">
      <path id="Path_124" data-name="Path 124" d="M52.111,104.252H46.726a1.767,1.767,0,1,1,0-3.535h5.385a1.767,1.767,0,1,1,0,3.535Z" transform="translate(-44.959 -100.717)" fill="#33363a"/>
    </g>
    <g id="Group_19" data-name="Group 19" transform="translate(61.217 38.867)">
      <g id="Group_15" data-name="Group 15" transform="translate(1.764 3.668)">
        <circle id="Ellipse_20" data-name="Ellipse 20" cx="5.605" cy="5.605" r="5.605" fill="#a7bbc1"/>
      </g>
      <g id="Group_16" data-name="Group 16" transform="translate(1.764 1.763)">
        <circle id="Ellipse_21" data-name="Ellipse 21" cx="5.605" cy="5.605" r="5.605" fill="#fff"/>
      </g>
      <g id="Group_17" data-name="Group 17" transform="translate(1.764 1.763)">
        <path id="Path_125" data-name="Path 125" d="M60.605,44.053a5.606,5.606,0,0,1,7.926-7.929" transform="translate(-58.964 -34.483)" fill="#d8e5ea"/>
      </g>
      <g id="Group_18" data-name="Group 18">
        <path id="Path_126" data-name="Path 126" d="M64.836,47.724a7.368,7.368,0,1,1,5.213-2.154A7.349,7.349,0,0,1,64.836,47.724Zm0-11.205a3.836,3.836,0,1,0,2.712,1.122A3.825,3.825,0,0,0,64.836,36.518Z" transform="translate(-57.467 -32.987)" fill="#33363a"/>
      </g>
    </g>
  </g>
</svg>
