<svg xmlns="http://www.w3.org/2000/svg" width="208.352" height="150.16" viewBox="0 0 208.352 150.16">
  <g id="website" transform="translate(0 -71.5)">
    <path id="Path_59" data-name="Path 59" d="M209.748,108.3H7.5V91.208A12.208,12.208,0,0,1,19.708,79H197.54a12.208,12.208,0,0,1,12.208,12.208Z" transform="translate(-4.448 -4.448)" fill="#43809f"/>
    <path id="Path_60" data-name="Path 60" d="M474.5,79v29.3h12.208V91.208A12.208,12.208,0,0,0,474.5,79Z" transform="translate(-281.408 -4.448)" fill="#3a7190"/>
    <path id="Path_61" data-name="Path 61" d="M197.54,265.756H19.708A12.208,12.208,0,0,1,7.5,253.548V151H209.748V253.548A12.208,12.208,0,0,1,197.54,265.756Z" transform="translate(-4.448 -47.149)" fill="#a9dbf5"/>
    <path id="Path_62" data-name="Path 62" d="M474.5,151V265.756a12.208,12.208,0,0,0,12.208-12.208V151Z" transform="translate(-281.408 -47.149)" fill="#88c3e0"/>
    <circle id="Ellipse_15" data-name="Ellipse 15" cx="6.104" cy="6.104" r="6.104" transform="translate(16.484 83.249)" fill="#29cef6"/>
    <circle id="Ellipse_16" data-name="Ellipse 16" cx="6.104" cy="6.104" r="6.104" transform="translate(40.151 83.249)" fill="#f3f3f3"/>
    <circle id="Ellipse_17" data-name="Ellipse 17" cx="6.104" cy="6.104" r="6.104" transform="translate(63.818 83.249)" fill="#f78e36"/>
    <path id="Path_63" data-name="Path 63" d="M345.73,217.076H326.6a6.1,6.1,0,1,1,0-12.208H345.73a6.1,6.1,0,0,1,0,12.208Z" transform="translate(-190.077 -79.096)" fill="#29cef6"/>
    <path id="Path_64" data-name="Path 64" d="M377.064,277.076H326.6a6.1,6.1,0,1,1,0-12.208h50.46a6.1,6.1,0,1,1,0,12.208Z" transform="translate(-190.077 -114.679)" fill="#ffc328"/>
    <path id="Path_65" data-name="Path 65" d="M362.075,337.076H326.6a6.1,6.1,0,1,1,0-12.208h35.471a6.1,6.1,0,1,1,0,12.208Z" transform="translate(-190.077 -150.263)" fill="#f78e36"/>
    <g id="Group_4" data-name="Group 4" transform="translate(0 71.5)">
      <path id="Path_66" data-name="Path 66" d="M193.092,71.5H182.405a3.052,3.052,0,1,0,0,6.1h10.687a9.167,9.167,0,0,1,9.156,9.156V100.8H6.1V86.76A9.166,9.166,0,0,1,15.26,77.6H169a3.052,3.052,0,0,0,0-6.1H15.26A15.277,15.277,0,0,0,0,86.76v33.646a3.052,3.052,0,0,0,6.1,0V106.9H202.248v78.688a3.052,3.052,0,1,0,6.1,0V86.76A15.277,15.277,0,0,0,193.092,71.5Z" transform="translate(0 -71.5)"/>
      <path id="Path_67" data-name="Path 67" d="M205.3,281.325a3.052,3.052,0,0,0-3.052,3.052v7.938a9.167,9.167,0,0,1-9.156,9.156H15.26A9.166,9.166,0,0,1,6.1,292.315v-72.9a3.052,3.052,0,1,0-6.1,0v72.9a15.277,15.277,0,0,0,15.26,15.26H193.092a15.277,15.277,0,0,0,15.26-15.26v-7.938A3.052,3.052,0,0,0,205.3,281.325Z" transform="translate(0 -157.415)"/>
      <path id="Path_68" data-name="Path 68" d="M74.16,233.155a3.052,3.052,0,0,0-4.316,0L51.5,251.5a3.052,3.052,0,0,0,0,4.317l18.1,18.1a3.052,3.052,0,0,0,4.316-4.316l-15.94-15.94L74.16,237.471a3.052,3.052,0,0,0,0-4.317Z" transform="translate(-30.014 -166.841)"/>
      <path id="Path_69" data-name="Path 69" d="M207.688,273.909a3.052,3.052,0,0,0,4.316,0l18.1-18.1a3.053,3.053,0,0,0,0-4.317l-18.341-18.341a3.052,3.052,0,0,0-4.316,4.316l16.183,16.183-15.94,15.94A3.052,3.052,0,0,0,207.688,273.909Z" transform="translate(-122.498 -166.841)"/>
      <path id="Path_70" data-name="Path 70" d="M127.542,270.07a3.053,3.053,0,0,0,2.854-1.97l21.687-57.133a3.052,3.052,0,1,0-5.706-2.167l-21.687,57.134a3.054,3.054,0,0,0,2.853,4.136Z" transform="translate(-73.83 -151.759)"/>
      <path id="Path_71" data-name="Path 71" d="M33.006,102.027a9.156,9.156,0,1,0,9.156-9.156,9.166,9.166,0,0,0-9.156,9.156Zm12.208,0a3.052,3.052,0,1,1-3.052-3.052A3.055,3.055,0,0,1,45.214,102.027Z" transform="translate(-19.575 -84.174)"/>
      <path id="Path_72" data-name="Path 72" d="M91.166,102.027a9.156,9.156,0,1,0,9.156-9.156A9.166,9.166,0,0,0,91.166,102.027Zm12.208,0a3.052,3.052,0,1,1-3.052-3.052A3.055,3.055,0,0,1,103.374,102.027Z" transform="translate(-54.067 -84.174)"/>
      <path id="Path_73" data-name="Path 73" d="M149.325,102.027a9.156,9.156,0,1,0,9.156-9.156A9.166,9.166,0,0,0,149.325,102.027Zm12.208,0a3.052,3.052,0,1,1-3.052-3.052A3.055,3.055,0,0,1,161.533,102.027Z" transform="translate(-88.559 -84.174)"/>
      <path id="Path_74" data-name="Path 74" d="M322.156,215.68h19.126a9.156,9.156,0,1,0,0-18.312H322.156a9.156,9.156,0,0,0,0,18.312Zm0-12.208h19.126a3.052,3.052,0,1,1,0,6.1H322.156a3.052,3.052,0,0,1,0-6.1Z" transform="translate(-185.629 -146.148)"/>
      <path id="Path_75" data-name="Path 75" d="M322.156,275.68h50.46a9.156,9.156,0,0,0,0-18.312h-50.46a9.156,9.156,0,0,0,0,18.312Zm0-12.208h50.46a3.052,3.052,0,0,1,0,6.1h-50.46a3.052,3.052,0,0,1,0-6.1Z" transform="translate(-185.629 -181.731)"/>
      <path id="Path_76" data-name="Path 76" d="M322.156,335.68h35.471a9.156,9.156,0,1,0,0-18.312H322.156a9.156,9.156,0,0,0,0,18.312Zm0-12.208h35.471a3.052,3.052,0,1,1,0,6.1H322.156a3.052,3.052,0,0,1,0-6.1Z" transform="translate(-185.629 -217.315)"/>
    </g>
  </g>
</svg>
