<svg xmlns="http://www.w3.org/2000/svg" width="78" height="78" viewBox="0 0 78 78">
  <path id="ic_camera_24px" d="M29.75,33.875,47.637,2.9A38.646,38.646,0,0,0,39.5,2a37.44,37.44,0,0,0-23.7,8.438L29.525,34.25l.225-.375ZM75.275,28.25a37.593,37.593,0,0,0-22.5-23.775L39.05,28.25ZM76.25,32H48.163l1.088,1.875L67.1,64.813A37.165,37.165,0,0,0,77,39.5a37.964,37.964,0,0,0-.75-7.5ZM26.525,39.5,11.9,14.188A37.341,37.341,0,0,0,2,39.5,37.964,37.964,0,0,0,2.75,47H30.837ZM3.725,50.75a37.593,37.593,0,0,0,22.5,23.775L39.95,50.75Zm42.263,0L31.363,76.1A38.646,38.646,0,0,0,39.5,77a37.44,37.44,0,0,0,23.7-8.437L49.475,44.75l-3.488,6Z" transform="translate(-0.5 -0.5)" fill="none" stroke="#626d71" stroke-width="3"/>
</svg>
