<svg xmlns="http://www.w3.org/2000/svg" width="155" height="155" viewBox="0 0 155 155"><defs><style>.a{fill:none;stroke:#102A49;stroke-width:5px;}</style></defs><path class="a" d="M57.5,65.75,93.275,3.8A77.292,77.292,0,0,0,77,2,74.881,74.881,0,0,0,29.6,18.875L57.05,66.5l.45-.75ZM148.55,54.5a75.187,75.187,0,0,0-45-47.55L76.1,54.5ZM150.5,62H94.325L96.5,65.75l35.7,61.875A74.329,74.329,0,0,0,152,77a75.929,75.929,0,0,0-1.5-15ZM51.05,77,21.8,26.375A74.682,74.682,0,0,0,2,77,75.929,75.929,0,0,0,3.5,92H59.675ZM5.45,99.5a75.187,75.187,0,0,0,45,47.55L77.9,99.5Zm84.525,0-29.25,50.7A77.292,77.292,0,0,0,77,152a74.881,74.881,0,0,0,47.4-16.875L96.95,87.5l-6.975,12Z" transform="translate(0.5 0.5)"/></svg>